<svg xmlns="http://www.w3.org/2000/svg" xmlns:xlink="http://www.w3.org/1999/xlink" contentStyleType="text/css" data-diagram-type="DESCRIPTION" height="536px" preserveAspectRatio="none" style="width:977px;height:536px;background:#FFFFFF;" version="1.1" viewBox="0 0 977 536" width="977px" zoomAndPan="magnify"><defs/><g><!--cluster UI Layer--><g class="cluster" data-entity="UI Layer" data-source-line="7" data-uid="ent0002" id="cluster_UI Layer"><rect fill="#ADD8E6" height="279.89" rx="2.5" ry="2.5" style="stroke:#000000;stroke-width:1;" width="323" x="169" y="12"/><text fill="#000000" font-family="Verdana" font-size="14" font-weight="bold" lengthAdjust="spacing" textLength="65.3447" x="297.8276" y="26.9951">UI Layer</text></g><!--cluster State Management (Bloc)--><g class="cluster" data-entity="State Management .Bloc." data-source-line="15" data-uid="ent0007" id="cluster_State Management .Bloc."><rect fill="#FFFFE0" height="87.3" rx="2.5" ry="2.5" style="stroke:#000000;stroke-width:1;" width="455" x="516" y="204.59"/><text fill="#000000" font-family="Verdana" font-size="14" font-weight="bold" lengthAdjust="spacing" textLength="201.3936" x="642.8032" y="219.5851">State Management (Bloc)</text></g><!--cluster Services--><g class="cluster" data-entity="Services" data-source-line="22" data-uid="ent0011" id="cluster_Services"><rect fill="#90EE90" height="87.29" rx="2.5" ry="2.5" style="stroke:#000000;stroke-width:1;" width="551" x="404" y="315.89"/><text fill="#000000" font-family="Verdana" font-size="14" font-weight="bold" lengthAdjust="spacing" textLength="66.5342" x="646.2329" y="330.8851">Services</text></g><!--cluster Core--><g class="cluster" data-entity="Core" data-source-line="29" data-uid="ent0015" id="cluster_Core"><rect fill="#F08080" height="87.3" rx="2.5" ry="2.5" style="stroke:#000000;stroke-width:1;" width="489" x="12" y="431.68"/><text fill="#000000" font-family="Verdana" font-size="14" font-weight="bold" lengthAdjust="spacing" textLength="36.292" x="238.354" y="446.6751">Core</text></g><!--cluster Firebase--><g class="cluster" data-entity="Firebase" data-source-line="37" data-uid="ent0020" id="cluster_Firebase"><path d="M544.783,438.3832 C548.7182,429.7165 555.5096,427.7266 562.392,435.1597 C568.0731,426.0584 576.6813,424.9183 582.6253,434.8807 C585.9211,426.0201 591.9586,422.3889 599.7692,430.2527 C605.0607,422.1053 614.2046,422.0659 618.8263,430.9999 C622.7028,421.6302 627.9104,421.4489 634.9391,427.761 C638.4152,419.3493 647.1369,416.142 652.922,425.4127 C657.5495,415.8471 665.5015,416.0154 671.019,424.5214 C678.0176,415.0879 685.0581,415.961 691.4971,425.1372 C699.0671,417.7188 705.228,420.1786 708.7483,429.3487 C715.2561,421.1749 722.5309,420.9884 727.3517,431.068 C733.1895,422.3514 739.8576,421.5124 745.5057,431.2545 C752.5681,423.2556 759.6535,424.8328 763.8476,434.2715 C769.6144,426.593 776.8443,428.4376 781.1342,435.952 C786.1972,429.1743 793.1267,428.6792 797.2843,436.9253 C808.6734,440.7883 810.0717,447.2137 804.2115,457.0223 C816.3915,460.4388 818.0513,467.8501 809.7765,476.9723 C817.65,485.7661 814.8453,494.3038 802.8303,495.7342 C810.7467,503.2414 808.545,512.9093 798.3013,516.4453 C794.2987,524.509 786.07,527.591 779.8874,518.8313 C773.2043,526.2703 766.1891,527.3548 761.0098,517.2163 C756.1526,525.6273 750.8151,524.0601 745.3355,517.8852 C739.4728,526.9193 732.8047,526.0791 726.5135,518.3669 C721.642,526.4175 714.4834,528.4207 708.5979,519.4331 C702.816,528.1269 696.459,529.4646 690.2358,519.8763 C685.2464,528.7366 680.2383,528.6098 673.849,521.2945 C666.6208,529.8458 658.219,528.0122 654.2856,517.8501 C649.0035,528.2163 640.9089,526.2213 634.9604,518.5646 C629.7006,528.0749 621.3202,525.8284 616.6452,517.9487 C612.0415,527.2395 604.3572,528.5849 598.5462,519.1132 C592.9031,525.8619 587.0543,525.8054 581.5804,518.9028 C575.829,526.5064 568.9278,525.7069 564.8772,517.1454 C559.4979,526.0347 553.1884,526.3968 546.5327,518.544 C535.3467,513.466 535.8089,502.5435 545.294,496.3137 C533.9444,490.8197 535.5703,482.9487 543.9434,476.1347 C535.3997,470.1366 534.2308,461.4485 544.8827,456.3624 C536.0273,451.3193 536.4026,443.522 544.783,438.3832" fill="#90EE90" style="stroke:#000000;stroke-width:1;"/><text fill="#000000" font-family="Verdana" font-size="14" font-weight="bold" lengthAdjust="spacing" textLength="68.0586" x="636.4707" y="453.1751">Firebase</text></g><!--entity CataloguePage--><g class="entity" data-entity="CataloguePage" data-source-line="8" data-uid="ent0003" id="entity_CataloguePage"><rect fill="#FFFFFF" height="36.2969" rx="2.5" ry="2.5" style="stroke:#000000;stroke-width:1;" width="125.7725" x="189.11" y="47"/><text fill="#000000" font-family="Verdana" font-size="14" lengthAdjust="spacing" textLength="105.7725" x="199.11" y="69.9951">CataloguePage</text></g><!--entity MediaDetailPage--><g class="entity" data-entity="MediaDetailPage" data-source-line="9" data-uid="ent0004" id="entity_MediaDetailPage"><rect fill="#FFFFFF" height="36.2969" rx="2.5" ry="2.5" style="stroke:#000000;stroke-width:1;" width="137.8105" x="188.09" y="143.29"/><text fill="#000000" font-family="Verdana" font-size="14" lengthAdjust="spacing" textLength="117.8105" x="198.09" y="166.2851">MediaDetailPage</text></g><!--entity UploadPage--><g class="entity" data-entity="UploadPage" data-source-line="10" data-uid="ent0005" id="entity_UploadPage"><rect fill="#FFFFFF" height="36.2969" rx="2.5" ry="2.5" style="stroke:#000000;stroke-width:1;" width="103.5762" x="372.21" y="239.59"/><text fill="#000000" font-family="Verdana" font-size="14" lengthAdjust="spacing" textLength="83.5762" x="382.21" y="262.5851">UploadPage</text></g><!--entity VideoPlayerScreen--><g class="entity" data-entity="VideoPlayerScreen" data-source-line="11" data-uid="ent0006" id="entity_VideoPlayerScreen"><rect fill="#FFFFFF" height="36.2969" rx="2.5" ry="2.5" style="stroke:#000000;stroke-width:1;" width="151.5371" x="185.23" y="239.59"/><text fill="#000000" font-family="Verdana" font-size="14" lengthAdjust="spacing" textLength="131.5371" x="195.23" y="262.5851">VideoPlayerScreen</text></g><!--entity CatalogueBloc--><g class="entity" data-entity="CatalogueBloc" data-source-line="16" data-uid="ent0008" id="entity_CatalogueBloc"><rect fill="#FFFFFF" height="36.2969" rx="2.5" ry="2.5" style="stroke:#000000;stroke-width:1;" width="121.0078" x="833.5" y="239.59"/><text fill="#000000" font-family="Verdana" font-size="14" lengthAdjust="spacing" textLength="101.0078" x="843.5" y="262.5851">CatalogueBloc</text></g><!--entity MediaDetailBloc--><g class="entity" data-entity="MediaDetailBloc" data-source-line="17" data-uid="ent0009" id="entity_MediaDetailBloc"><rect fill="#FFFFFF" height="36.2969" rx="2.5" ry="2.5" style="stroke:#000000;stroke-width:1;" width="133.0459" x="665.48" y="239.59"/><text fill="#000000" font-family="Verdana" font-size="14" lengthAdjust="spacing" textLength="113.0459" x="675.48" y="262.5851">MediaDetailBloc</text></g><!--entity UploadBloc--><g class="entity" data-entity="UploadBloc" data-source-line="18" data-uid="ent0010" id="entity_UploadBloc"><rect fill="#FFFFFF" height="36.2969" rx="2.5" ry="2.5" style="stroke:#000000;stroke-width:1;" width="98.8115" x="531.59" y="239.59"/><text fill="#000000" font-family="Verdana" font-size="14" lengthAdjust="spacing" textLength="78.8115" x="541.59" y="262.5851">UploadBloc</text></g><!--entity FirebaseService--><g class="entity" data-entity="FirebaseService" data-source-line="23" data-uid="ent0012" id="entity_FirebaseService"><rect fill="#FFFFFF" height="36.2969" rx="2.5" ry="2.5" style="stroke:#000000;stroke-width:1;" width="131.4258" x="657.29" y="350.89"/><text fill="#000000" font-family="Verdana" font-size="14" lengthAdjust="spacing" textLength="111.4258" x="667.29" y="373.8851">FirebaseService</text></g><!--entity CacheService--><g class="entity" data-entity="CacheService" data-source-line="24" data-uid="ent0013" id="entity_CacheService"><rect fill="#FFFFFF" height="36.2969" rx="2.5" ry="2.5" style="stroke:#000000;stroke-width:1;" width="115.2793" x="823.36" y="350.89"/><text fill="#000000" font-family="Verdana" font-size="14" lengthAdjust="spacing" textLength="95.2793" x="833.36" y="373.8851">CacheService</text></g><!--entity VideoCompressionService--><g class="entity" data-entity="VideoCompressionService" data-source-line="25" data-uid="ent0014" id="entity_VideoCompressionService"><rect fill="#FFFFFF" height="36.2969" rx="2.5" ry="2.5" style="stroke:#000000;stroke-width:1;" width="202.4238" x="419.79" y="350.89"/><text fill="#000000" font-family="Verdana" font-size="14" lengthAdjust="spacing" textLength="182.4238" x="429.79" y="373.8851">VideoCompressionService</text></g><!--entity AppTheme--><g class="entity" data-entity="AppTheme" data-source-line="30" data-uid="ent0016" id="entity_AppTheme"><rect fill="#FFFFFF" height="36.2969" rx="2.5" ry="2.5" style="stroke:#000000;stroke-width:1;" width="95.6396" x="147.18" y="466.68"/><text fill="#000000" font-family="Verdana" font-size="14" lengthAdjust="spacing" textLength="75.6396" x="157.18" y="489.6751">AppTheme</text></g><!--entity AppIcons--><g class="entity" data-entity="AppIcons" data-source-line="31" data-uid="ent0017" id="entity_AppIcons"><rect fill="#FFFFFF" height="36.2969" rx="2.5" ry="2.5" style="stroke:#000000;stroke-width:1;" width="83.9092" x="28.05" y="466.68"/><text fill="#000000" font-family="Verdana" font-size="14" lengthAdjust="spacing" textLength="63.9092" x="38.05" y="489.6751">AppIcons</text></g><!--entity MediaModel--><g class="entity" data-entity="MediaModel" data-source-line="32" data-uid="ent0018" id="entity_MediaModel"><rect fill="#FFFFFF" height="36.2969" rx="2.5" ry="2.5" style="stroke:#000000;stroke-width:1;" width="104.082" x="277.96" y="466.68"/><text fill="#000000" font-family="Verdana" font-size="14" lengthAdjust="spacing" textLength="84.082" x="287.96" y="489.6751">MediaModel</text></g><!--entity Logger--><g class="entity" data-entity="Logger" data-source-line="33" data-uid="ent0019" id="entity_Logger"><rect fill="#FFFFFF" height="36.2969" rx="2.5" ry="2.5" style="stroke:#000000;stroke-width:1;" width="68.5078" x="416.75" y="466.68"/><text fill="#000000" font-family="Verdana" font-size="14" lengthAdjust="spacing" textLength="48.5078" x="426.75" y="489.6751">Logger</text></g><!--entity Firestore--><g class="entity" data-entity="Firestore" data-source-line="38" data-uid="ent0021" id="entity_Firestore"><path d="M551.99,472.18 C551.99,462.18 593.0046,462.18 593.0046,462.18 C593.0046,462.18 634.0193,462.18 634.0193,472.18 L634.0193,497.4769 C634.0193,507.4769 593.0046,507.4769 593.0046,507.4769 C593.0046,507.4769 551.99,507.4769 551.99,497.4769 L551.99,472.18" fill="#FFFFFF" style="stroke:#000000;stroke-width:1;"/><path d="M551.99,472.18 C551.99,482.18 593.0046,482.18 593.0046,482.18 C593.0046,482.18 634.0193,482.18 634.0193,472.18" fill="none" style="stroke:#000000;stroke-width:1;"/><text fill="#000000" font-family="Verdana" font-size="14" lengthAdjust="spacing" textLength="62.0293" x="561.99" y="499.1751">Firestore</text></g><!--entity CloudStorage--><g class="entity" data-entity="CloudStorage" data-source-line="39" data-uid="ent0022" id="entity_CloudStorage"><rect fill="#FFFFFF" height="36.2969" rx="35" ry="35" style="stroke:#000000;stroke-width:1;" width="119.2168" x="669.39" y="466.68"/><text fill="#000000" font-family="Verdana" font-size="14" lengthAdjust="spacing" textLength="99.2168" x="679.39" y="489.6751">Cloud Storage</text></g><!--link CataloguePage to CatalogueBloc--><g class="link" data-entity-1="CataloguePage" data-entity-2="CatalogueBloc" data-source-line="43" data-uid="lnk23" id="link_CataloguePage_CatalogueBloc"><path d="M315.38,71.89 C422.89,83.56 645.9,116.08 816,196.59 C838.72,207.34 856.6341,221.5398 871.5441,235.1198" fill="none" id="CataloguePage-to-CatalogueBloc" style="stroke:#000000;stroke-width:1;"/><polygon fill="#000000" points="875.98,239.16,872.0197,230.1425,872.2834,235.7932,866.6327,236.057,875.98,239.16" style="stroke:#000000;stroke-width:1;"/></g><!--link MediaDetailPage to MediaDetailBloc--><g class="link" data-entity-1="MediaDetailPage" data-entity-2="MediaDetailBloc" data-source-line="44" data-uid="lnk24" id="link_MediaDetailPage_MediaDetailBloc"><path d="M326.32,164.11 C422.43,167.17 590.8,175.43 648,196.59 C673.23,205.92 693.2532,220.9864 709.2132,235.1564" fill="none" id="MediaDetailPage-to-MediaDetailBloc" style="stroke:#000000;stroke-width:1;"/><polygon fill="#000000" points="713.7,239.14,709.6255,230.1735,709.961,235.8204,704.3141,236.1558,713.7,239.14" style="stroke:#000000;stroke-width:1;"/></g><!--link UploadPage to UploadBloc--><g class="link" data-entity-1="UploadPage" data-entity-2="UploadBloc" data-source-line="45" data-uid="lnk25" id="link_UploadPage_UploadBloc"><path d="M476.13,257.74 C494.56,257.74 507,257.74 525.43,257.74" fill="none" id="UploadPage-to-UploadBloc" style="stroke:#000000;stroke-width:1;"/><polygon fill="#000000" points="531.43,257.74,522.43,253.74,526.43,257.74,522.43,261.74,531.43,257.74" style="stroke:#000000;stroke-width:1;"/></g><!--link CatalogueBloc to FirebaseService--><g class="link" data-entity-1="CatalogueBloc" data-entity-2="FirebaseService" data-source-line="47" data-uid="lnk26" id="link_CatalogueBloc_FirebaseService"><path d="M860.45,276.27 C843.8,285.27 823.55,296.68 806,307.89 C785,321.29 766.9346,334.4095 750.5346,346.8195" fill="none" id="CatalogueBloc-to-FirebaseService" style="stroke:#000000;stroke-width:1;"/><polygon fill="#000000" points="745.75,350.44,755.3405,348.1989,749.7371,347.4229,750.5132,341.8195,745.75,350.44" style="stroke:#000000;stroke-width:1;"/></g><!--link MediaDetailBloc to FirebaseService--><g class="link" data-entity-1="MediaDetailBloc" data-entity-2="FirebaseService" data-source-line="48" data-uid="lnk27" id="link_MediaDetailBloc_FirebaseService"><path d="M730.55,276.3 C728.87,296.69 726.6129,324.1603 724.9329,344.5403" fill="none" id="MediaDetailBloc-to-FirebaseService" style="stroke:#000000;stroke-width:1;"/><polygon fill="#000000" points="724.44,350.52,729.1659,341.879,724.8508,345.5369,721.1929,341.2218,724.44,350.52" style="stroke:#000000;stroke-width:1;"/></g><!--link UploadBloc to FirebaseService--><g class="link" data-entity-1="UploadBloc" data-entity-2="FirebaseService" data-source-line="49" data-uid="lnk28" id="link_UploadBloc_FirebaseService"><path d="M603.81,276.3 C630.31,296.69 669.0159,326.4797 695.4859,346.8597" fill="none" id="UploadBloc-to-FirebaseService" style="stroke:#000000;stroke-width:1;"/><polygon fill="#000000" points="700.24,350.52,695.549,341.8601,696.2782,347.4697,690.6686,348.1989,700.24,350.52" style="stroke:#000000;stroke-width:1;"/></g><!--link CatalogueBloc to CacheService--><g class="link" data-entity-1="CatalogueBloc" data-entity-2="CacheService" data-source-line="51" data-uid="lnk29" id="link_CatalogueBloc_CacheService"><path d="M891.91,276.3 C889.49,296.69 886.2204,324.1822 883.7904,344.5622" fill="none" id="CatalogueBloc-to-CacheService" style="stroke:#000000;stroke-width:1;"/><polygon fill="#000000" points="883.08,350.52,888.1174,342.0569,883.672,345.5552,880.1737,341.1097,883.08,350.52" style="stroke:#000000;stroke-width:1;"/></g><!--link UploadPage to VideoCompressionService--><g class="link" data-entity-1="UploadPage" data-entity-2="VideoCompressionService" data-source-line="52" data-uid="lnk30" id="link_UploadPage_VideoCompressionService"><path d="M439.58,276.3 C457.69,296.69 483.3882,325.6517 501.4682,346.0317" fill="none" id="UploadPage-to-VideoCompressionService" style="stroke:#000000;stroke-width:1;"/><polygon fill="#000000" points="505.45,350.52,502.4695,341.1329,502.1318,346.7797,496.4851,346.442,505.45,350.52" style="stroke:#000000;stroke-width:1;"/></g><!--link FirebaseService to Firestore--><g class="link" data-entity-1="FirebaseService" data-entity-2="Firestore" data-source-line="54" data-uid="lnk31" id="link_FirebaseService_Firestore"><path d="M694.62,387.56 C681.17,396.38 665.21,407.64 652,419.18 C637.13,432.18 626.0338,444.0851 614.8938,457.1451" fill="none" id="FirebaseService-to-Firestore" style="stroke:#000000;stroke-width:1;"/><polygon fill="#000000" points="611,461.71,619.884,457.4585,614.2448,457.9059,613.7974,452.2668,611,461.71" style="stroke:#000000;stroke-width:1;"/></g><!--link FirebaseService to CloudStorage--><g class="link" data-entity-1="FirebaseService" data-entity-2="CloudStorage" data-source-line="55" data-uid="lnk32" id="link_FirebaseService_CloudStorage"><path d="M723.91,387.32 C725.04,408.71 726.6346,438.9283 727.7646,460.3983" fill="none" id="FirebaseService-to-CloudStorage" style="stroke:#000000;stroke-width:1;"/><polygon fill="#000000" points="728.08,466.39,731.6014,457.1922,727.8172,461.3969,723.6125,457.6127,728.08,466.39" style="stroke:#000000;stroke-width:1;"/></g><!--link FirebaseService to MediaModel--><g class="link" data-entity-1="FirebaseService" data-entity-2="MediaModel" data-source-line="56" data-uid="lnk33" id="link_FirebaseService_MediaModel"><path d="M695.36,387.48 C679.74,396.35 659.5,406.27 640,411.18 C614.02,417.73 423.75,408.92 399,419.18 C375.34,428.99 358.6309,446.151 346.2609,461.731" fill="none" id="FirebaseService-to-MediaModel" style="stroke:#000000;stroke-width:1;"/><polygon fill="#000000" points="342.53,466.43,351.259,461.8687,345.639,462.5142,344.9936,456.8942,342.53,466.43" style="stroke:#000000;stroke-width:1;"/></g><!--link CataloguePage to AppTheme--><g class="link" data-entity-1="CataloguePage" data-entity-2="AppTheme" data-source-line="58" data-uid="lnk34" id="link_CataloguePage_AppTheme"><path d="M226.11,83.61 C196.15,105.72 148.88,146.96 133,196.59 C131.07,202.62 133.67,410.28 134,411.18 C142.04,432.97 155.3592,448.6795 169.6292,462.0995" fill="none" id="CataloguePage-to-AppTheme" style="stroke:#000000;stroke-width:1;"/><polygon fill="#000000" points="174,466.21,170.1841,457.1304,170.3577,462.7846,164.7035,462.9582,174,466.21" style="stroke:#000000;stroke-width:1;"/></g><!--link MediaDetailPage to AppTheme--><g class="link" data-entity-1="MediaDetailPage" data-entity-2="AppTheme" data-source-line="59" data-uid="lnk35" id="link_MediaDetailPage_AppTheme"><path d="M187.67,178.92 C179.95,183.45 173.06,189.22 168,196.59 C108.98,282.45 161.1337,412.9818 183.7237,460.9518" fill="none" id="MediaDetailPage-to-AppTheme" style="stroke:#000000;stroke-width:1;"/><polygon fill="#000000" points="186.28,466.38,186.0644,456.5335,184.1498,461.8565,178.8268,459.9418,186.28,466.38" style="stroke:#000000;stroke-width:1;"/></g><!--link UploadPage to AppTheme--><g class="link" data-entity-1="UploadPage" data-entity-2="AppTheme" data-source-line="60" data-uid="lnk36" id="link_UploadPage_AppTheme"><path d="M417.55,276.24 C404.51,308.91 371.7,378.78 319,411.18 C296.46,425.04 283.73,407.47 260,419.18 C238.02,430.04 222.6358,446.4801 210.9358,461.6401" fill="none" id="UploadPage-to-AppTheme" style="stroke:#000000;stroke-width:1;"/><polygon fill="#000000" points="207.27,466.39,215.9354,461.709,210.3249,462.4317,209.6021,456.8212,207.27,466.39" style="stroke:#000000;stroke-width:1;"/></g><!--link VideoPlayerScreen to AppTheme--><g class="link" data-entity-1="VideoPlayerScreen" data-entity-2="AppTheme" data-source-line="61" data-uid="lnk37" id="link_VideoPlayerScreen_AppTheme"><path d="M255.93,276.03 C243.65,317.93 214.0778,418.7623 201.7778,460.7223" fill="none" id="VideoPlayerScreen-to-AppTheme" style="stroke:#000000;stroke-width:1;"/><polygon fill="#000000" points="200.09,466.48,206.4602,458.9686,201.4965,461.6819,198.7832,456.7182,200.09,466.48" style="stroke:#000000;stroke-width:1;"/></g><!--link CataloguePage to AppIcons--><g class="link" data-entity-1="CataloguePage" data-entity-2="AppIcons" data-source-line="63" data-uid="lnk38" id="link_CataloguePage_AppIcons"><path d="M207.22,83.68 C180.9,96.31 149.3,115.97 131,143.29 C60.13,249.08 64.3944,407.2144 68.0944,460.5044" fill="none" id="CataloguePage-to-AppIcons" style="stroke:#000000;stroke-width:1;"/><polygon fill="#000000" points="68.51,466.49,71.877,457.2346,68.1637,461.502,63.8962,457.7887,68.51,466.49" style="stroke:#000000;stroke-width:1;"/></g><!--link MediaDetailPage to AppIcons--><g class="link" data-entity-1="MediaDetailPage" data-entity-2="AppIcons" data-source-line="64" data-uid="lnk39" id="link_MediaDetailPage_AppIcons"><path d="M187.91,167.94 C167.78,172.8 147.37,181.44 133,196.59 C59.39,274.19 63.5698,411.1709 67.6998,460.5409" fill="none" id="MediaDetailPage-to-AppIcons" style="stroke:#000000;stroke-width:1;"/><polygon fill="#000000" points="68.2,466.52,71.4358,457.2179,67.7832,461.5374,63.4637,457.8848,68.2,466.52" style="stroke:#000000;stroke-width:1;"/></g><!--link UploadPage to AppIcons--><g class="link" data-entity-1="UploadPage" data-entity-2="AppIcons" data-source-line="65" data-uid="lnk40" id="link_UploadPage_AppIcons"><path d="M398.77,276.31 C385.89,284.55 369.66,293.87 354,299.89 C337.48,306.23 331.48,301.46 315,307.89 C225.61,342.76 204.48,358.69 130,419.18 C112.53,433.37 99.1768,447.9671 87.7068,461.7571" fill="none" id="UploadPage-to-AppIcons" style="stroke:#000000;stroke-width:1;"/><polygon fill="#000000" points="83.87,466.37,92.7005,462.0085,87.0674,462.5259,86.55,456.8928,83.87,466.37" style="stroke:#000000;stroke-width:1;"/></g><!--link MediaDetailPage to VideoPlayerScreen--><g class="link" data-entity-1="MediaDetailPage" data-entity-2="VideoPlayerScreen" data-source-line="67" data-uid="lnk41" id="link_MediaDetailPage_VideoPlayerScreen"><path d="M257.73,179.74 C258.45,196.64 259.2858,216.2554 260.0058,233.2354" fill="none" id="MediaDetailPage-to-VideoPlayerScreen" style="stroke:#000000;stroke-width:1;"/><polygon fill="#000000" points="260.26,239.23,263.8751,230.0686,260.0482,234.2345,255.8823,230.4075,260.26,239.23" style="stroke:#000000;stroke-width:1;"/></g><!--link CataloguePage to MediaDetailPage--><g class="link" data-entity-1="CataloguePage" data-entity-2="MediaDetailPage" data-source-line="68" data-uid="lnk42" id="link_CataloguePage_MediaDetailPage"><path d="M252.92,83.44 C253.81,100.35 254.8524,119.9684 255.7524,136.9484" fill="none" id="CataloguePage-to-MediaDetailPage" style="stroke:#000000;stroke-width:1;"/><polygon fill="#000000" points="256.07,142.94,259.588,133.7409,255.8054,137.947,251.5992,134.1643,256.07,142.94" style="stroke:#000000;stroke-width:1;"/></g><!--link MediaDetailPage to UploadPage--><g class="link" data-entity-1="MediaDetailPage" data-entity-2="UploadPage" data-source-line="69" data-uid="lnk43" id="link_MediaDetailPage_UploadPage"><path d="M318.05,180.03 C330.33,184.64 342.87,190.16 354,196.59 C374.11,208.22 389.6303,221.7546 403.0103,234.9646" fill="none" id="MediaDetailPage-to-UploadPage" style="stroke:#000000;stroke-width:1;"/><polygon fill="#000000" points="407.28,239.18,403.6858,230.0104,403.7219,235.6671,398.0652,235.7033,407.28,239.18" style="stroke:#000000;stroke-width:1;"/></g><!--SRC=[TLLDZvim4BtpAwRfOTl3_eHMOgctHGhP2DYLgge7nuo8jGOZS5f5g_tlYqtui36v9FFcUSRp_EnyKcUi41f1UHqesO2IS99AoGeAtY9JNDP1zyhhXhQqWeQoLrfYfgu2GQTfNGfS49Yi6bbZhLnAS0VVbXzuZc4V_YQf3GUt3h3JUNh5TWUV1I_FwYGk26y1p2tWJqGL5RAyuB5VyXTe1nPYanCiEFs1Yd8nqHtCNl3S24cBYJk7Dks55oYFGkyrOorYRTWhD7XVQv3bOKuW2G_XJvAGGxwbHQQeGaXetKULRlhbGKZsTPJcYaB8_vlYQAujZaOsnPde3kOJP-BEeNTEahx44SasvyFs7sVOZGELMZ1tdiVUZoVQuOrisZgOAm0xM-mbu3d3g8zRxBhUyijL6pdVdD5JIhPcZ6IButnCjbIuyuLDa-lBQ9gEmOeICrbt8yK4deDCP85YFaCJshIzB4ji3MNuwHldCKx9GvYv8p4XBmNiHktNXrRqFjEPWTCfC_djj4pKS_Jte8kfbWsXeHda1lYsbOJn0LAo3_FuwP3zYe-khwn70ExllplETswzORXcds-xII_y7LZ5JDQreLFCovahUjEUBfPzdVrjcJHmwawzXdFmPItvVOI5fpnIJyxrgJmbdUrF-EhPjDF-ViCrsEWt9DVz1joxQlrshzkw_no-EdFJ3m00]--></g></svg>